<svg width="30" height="31" viewBox="0 0 30 31" fill="none" xmlns="http://www.w3.org/2000/svg">
<path d="M29.2493 12.8263L26.1331 6.67895C25.9443 6.28235 25.661 5.97074 25.2833 5.74411C24.9056 5.51748 24.4995 5.40416 24.0652 5.40416H2.8187C2.17658 5.40416 1.62889 5.63079 1.17564 6.08405C0.722379 6.53731 0.49575 7.085 0.49575 7.72711V20.6733C0.49575 21.3154 0.722379 21.8678 1.17564 22.3305C1.62889 22.7932 2.17658 23.0246 2.8187 23.0246H4.03683C4.22568 23.8366 4.65061 24.5118 5.31161 25.0501C5.97262 25.5883 6.73749 25.8574 7.60623 25.8574C8.47498 25.8574 9.23513 25.5883 9.88669 25.0501C10.5382 24.5118 10.9585 23.8366 11.1473 23.0246H18.8527C19.0227 23.8366 19.4381 24.5118 20.0991 25.0501C20.7602 25.5883 21.525 25.8574 22.3938 25.8574C23.2625 25.8574 24.0274 25.5883 24.6884 25.0501C25.3494 24.5118 25.7743 23.8366 25.9632 23.0246H27.1813C27.8234 23.0246 28.3711 22.7932 28.8244 22.3305C29.2776 21.8678 29.5042 21.3154 29.5042 20.6733V13.8744C29.5042 13.7044 29.4806 13.5298 29.4334 13.3503C29.3862 13.1709 29.3248 12.9962 29.2493 12.8263ZM20.5241 6.99057H24.0652C24.1974 6.99057 24.3201 7.02834 24.4334 7.10388C24.5467 7.17942 24.6412 7.27385 24.7167 7.38717L27.3796 12.7129H20.5241V6.99057ZM7.60623 24.2427C7.03966 24.2427 6.55807 24.0444 6.16147 23.6478C5.76487 23.2512 5.56657 22.7696 5.56657 22.203C5.56657 21.6365 5.76487 21.1549 6.16147 20.7583C6.55807 20.3617 7.03966 20.1634 7.60623 20.1634C8.15392 20.1634 8.63078 20.3617 9.03683 20.7583C9.44287 21.1549 9.64589 21.6365 9.64589 22.203C9.64589 22.7696 9.44287 23.2512 9.03683 23.6478C8.63078 24.0444 8.15392 24.2427 7.60623 24.2427ZM23.8385 23.6478C23.8385 23.6478 23.7394 23.7469 23.5411 23.9452C23.3428 24.1435 22.9603 24.2427 22.3938 24.2427C21.8272 24.2427 21.3456 24.0444 20.949 23.6478C20.5524 23.2512 20.3541 22.7696 20.3541 22.203C20.3541 21.6365 20.5524 21.1549 20.949 20.7583C21.3456 20.3617 21.8272 20.1634 22.3938 20.1634C22.9603 20.1634 23.4419 20.3617 23.8385 20.7583C24.2351 21.1549 24.4334 21.6365 24.4334 22.203C24.4334 22.7696 24.2351 23.2512 23.8385 23.6478ZM27.8895 20.6733C27.8895 20.881 27.8187 21.0557 27.6771 21.1974C27.5354 21.339 27.3702 21.4098 27.1813 21.4098H25.9632C25.7743 20.5977 25.3494 19.9179 24.6884 19.3702C24.0274 18.8225 23.2625 18.5486 22.3938 18.5486C21.525 18.5486 20.7602 18.8225 20.0991 19.3702C19.4381 19.9179 19.0227 20.5977 18.8527 21.4098H11.1473C10.9773 20.5977 10.5619 19.9179 9.90085 19.3702C9.23985 18.8225 8.47498 18.5486 7.60623 18.5486C6.73749 18.5486 5.97262 18.8225 5.31161 19.3702C4.65061 19.9179 4.22568 20.5977 4.03683 21.4098H2.8187C2.62984 21.4098 2.46459 21.339 2.32295 21.1974C2.1813 21.0557 2.11048 20.881 2.11048 20.6733V16.6223H3.32861C3.55524 16.6223 3.7441 16.542 3.89518 16.3815C4.04627 16.221 4.12181 16.0368 4.12181 15.8291C4.12181 15.6025 4.04627 15.4089 3.89518 15.2484C3.7441 15.0878 3.55524 15.0076 3.32861 15.0076H2.11048V13.3928H5.31161C5.53824 13.3928 5.73182 13.3126 5.89235 13.152C6.05288 12.9915 6.13314 12.8074 6.13314 12.5996C6.13314 12.373 6.05288 12.1794 5.89235 12.0189C5.73182 11.8584 5.53824 11.7781 5.31161 11.7781H2.11048V7.72711C2.11048 7.51937 2.1813 7.3494 2.32295 7.2172C2.46459 7.085 2.62984 7.01889 2.8187 7.01889H18.9093V13.5345C18.9093 13.7422 18.9896 13.9264 19.1501 14.0869C19.3107 14.2474 19.5042 14.3277 19.7309 14.3277H27.8895V20.6733Z" fill="white"/>
</svg>
