<svg width="60" height="51" viewBox="0 0 60 51" fill="none" xmlns="http://www.w3.org/2000/svg">
<rect width="59.48" height="50" transform="translate(0 0.889648)" fill="#6BDDE4"/>
<path d="M31.1353 11.249V26.8896H27.5151V15.3311L23.9487 16.373V13.623L30.8022 11.249H31.1353ZM38.1714 24.2041H38.3862C39.1024 24.2041 39.7469 24.1253 40.3198 23.9678C40.8927 23.8102 41.3833 23.5667 41.7915 23.2373C42.1997 22.9007 42.5112 22.4674 42.7261 21.9375C42.9481 21.4004 43.0591 20.7523 43.0591 19.9932V16.7598C43.0591 16.2585 43.0161 15.8252 42.9302 15.46C42.8442 15.0876 42.7189 14.7796 42.5542 14.5361C42.3895 14.2926 42.1925 14.1136 41.9634 13.999C41.7342 13.8773 41.4764 13.8164 41.1899 13.8164C40.9035 13.8164 40.6492 13.8988 40.4272 14.0635C40.2124 14.221 40.0262 14.4359 39.8686 14.708C39.7183 14.973 39.6037 15.2738 39.5249 15.6104C39.4461 15.9398 39.4067 16.2728 39.4067 16.6094C39.4067 16.9889 39.4461 17.3434 39.5249 17.6729C39.6108 17.9951 39.7326 18.278 39.8901 18.5215C40.0548 18.7578 40.2589 18.944 40.5024 19.0801C40.7531 19.2161 41.0431 19.2842 41.3726 19.2842C41.702 19.2842 41.9849 19.2269 42.2212 19.1123C42.4647 18.9906 42.6652 18.833 42.8228 18.6396C42.9803 18.4391 43.0949 18.2243 43.1665 17.9951C43.2453 17.766 43.2811 17.5404 43.2739 17.3184L44.3267 18.1455C44.3267 18.6038 44.2228 19.055 44.0151 19.499C43.8075 19.943 43.521 20.3477 43.1558 20.7129C42.7905 21.071 42.368 21.3574 41.8882 21.5723C41.4155 21.7871 40.9142 21.8945 40.3843 21.8945C39.6753 21.8945 39.0343 21.7692 38.4614 21.5186C37.8957 21.2679 37.4123 20.9098 37.0112 20.4443C36.6102 19.9788 36.3022 19.4238 36.0874 18.7793C35.8797 18.1276 35.7759 17.4043 35.7759 16.6094C35.7759 15.8431 35.9084 15.1234 36.1733 14.4502C36.4383 13.777 36.8143 13.1862 37.3013 12.6777C37.7882 12.1621 38.3647 11.7575 39.0308 11.4639C39.6968 11.1702 40.4272 11.0234 41.2222 11.0234C41.9741 11.0234 42.6795 11.1667 43.3384 11.4531C43.9972 11.7324 44.5773 12.1442 45.0786 12.6885C45.5799 13.2327 45.9738 13.9023 46.2603 14.6973C46.5467 15.4922 46.6899 16.4017 46.6899 17.4258V18.6719C46.6899 19.7819 46.5539 20.7845 46.2817 21.6797C46.0096 22.5749 45.6229 23.3626 45.1216 24.043C44.6203 24.7161 44.0259 25.2819 43.3384 25.7402C42.658 26.1914 41.9025 26.5316 41.0718 26.7607C40.2482 26.9899 39.3745 27.1045 38.4507 27.1045H38.1714V24.2041Z" fill="white"/>
<path d="M29.5684 39.3994V33.3584H30.6934V39.3994C30.6934 39.9619 30.5782 40.4365 30.3477 40.8232C30.1172 41.21 29.7989 41.5049 29.3926 41.708C28.9903 41.9072 28.5274 42.0068 28.0039 42.0068C27.4805 42.0068 27.0157 41.917 26.6094 41.7373C26.2032 41.5576 25.8848 41.2842 25.6543 40.917C25.4239 40.5498 25.3086 40.0869 25.3086 39.5283H26.4395C26.4395 39.8877 26.5059 40.1826 26.6387 40.4131C26.7715 40.6436 26.9551 40.8135 27.1895 40.9229C27.4278 41.0322 27.6993 41.0869 28.0039 41.0869C28.3008 41.0869 28.5664 41.0244 28.8008 40.8994C29.0391 40.7705 29.2266 40.5811 29.3633 40.3311C29.5 40.0771 29.5684 39.7666 29.5684 39.3994ZM36.1836 40.8057V37.542C36.1836 37.292 36.1329 37.0752 36.0313 36.8916C35.9336 36.7041 35.7852 36.5596 35.586 36.458C35.3868 36.3564 35.1407 36.3057 34.8477 36.3057C34.5743 36.3057 34.334 36.3525 34.127 36.4463C33.9239 36.54 33.7637 36.6631 33.6465 36.8154C33.5332 36.9678 33.4766 37.1318 33.4766 37.3076H32.3926C32.3926 37.0811 32.4512 36.8564 32.5684 36.6338C32.6856 36.4111 32.8536 36.21 33.0723 36.0303C33.295 35.8467 33.5606 35.7021 33.8692 35.5967C34.1817 35.4873 34.5293 35.4326 34.9122 35.4326C35.3731 35.4326 35.7793 35.5107 36.1309 35.667C36.4864 35.8232 36.7637 36.0596 36.9629 36.376C37.1661 36.6885 37.2676 37.0811 37.2676 37.5537V40.5068C37.2676 40.7178 37.2852 40.9424 37.3204 41.1807C37.3594 41.4189 37.4161 41.624 37.4903 41.7959V41.8896H36.3594C36.3047 41.7646 36.2618 41.5986 36.2305 41.3916C36.1993 41.1807 36.1836 40.9854 36.1836 40.8057ZM36.3711 38.0459L36.3829 38.8076H35.2872C34.9786 38.8076 34.7032 38.833 34.461 38.8838C34.2188 38.9307 34.0157 39.0029 33.8516 39.1006C33.6875 39.1982 33.5625 39.3213 33.4766 39.4697C33.3907 39.6143 33.3477 39.7842 33.3477 39.9795C33.3477 40.1787 33.3926 40.3604 33.4825 40.5244C33.5723 40.6885 33.7071 40.8193 33.8868 40.917C34.0704 41.0107 34.295 41.0576 34.5606 41.0576C34.8926 41.0576 35.1856 40.9873 35.4395 40.8467C35.6934 40.7061 35.8946 40.5342 36.043 40.3311C36.1954 40.1279 36.2774 39.9307 36.2891 39.7393L36.752 40.2607C36.7247 40.4248 36.6504 40.6064 36.5293 40.8057C36.4082 41.0049 36.2461 41.1963 36.043 41.3799C35.8438 41.5596 35.6055 41.71 35.3282 41.8311C35.0547 41.9482 34.7461 42.0068 34.4024 42.0068C33.9727 42.0068 33.5957 41.9229 33.2715 41.7549C32.9512 41.5869 32.7012 41.3623 32.5215 41.0811C32.3457 40.7959 32.2579 40.4775 32.2579 40.126C32.2579 39.7861 32.3243 39.4873 32.4571 39.2295C32.5899 38.9678 32.7813 38.751 33.0313 38.5791C33.2813 38.4033 33.5821 38.2705 33.9336 38.1807C34.2852 38.0908 34.6778 38.0459 35.1114 38.0459H36.3711ZM40.0567 36.9033V41.8896H38.9727V35.5498H39.9981L40.0567 36.9033ZM39.7989 38.4795L39.3477 38.4619C39.3516 38.0283 39.4161 37.6279 39.5411 37.2607C39.6661 36.8896 39.8418 36.5674 40.0684 36.2939C40.295 36.0205 40.5645 35.8096 40.877 35.6611C41.1934 35.5088 41.543 35.4326 41.9258 35.4326C42.2383 35.4326 42.5196 35.4756 42.7696 35.5615C43.0196 35.6436 43.2325 35.7764 43.4082 35.96C43.5879 36.1436 43.7247 36.3818 43.8184 36.6748C43.9122 36.9639 43.959 37.3174 43.959 37.7354V41.8896H42.8692V37.7236C42.8692 37.3916 42.8204 37.126 42.7227 36.9268C42.625 36.7236 42.4825 36.5771 42.295 36.4873C42.1075 36.3936 41.877 36.3467 41.6036 36.3467C41.334 36.3467 41.0879 36.4033 40.8653 36.5166C40.6465 36.6299 40.4571 36.7861 40.2969 36.9854C40.1407 37.1846 40.0176 37.4131 39.9278 37.6709C39.8418 37.9248 39.7989 38.1943 39.7989 38.4795Z" fill="white"/>
</svg>
