<svg width="15" height="15" viewBox="0 0 15 15" fill="none" xmlns="http://www.w3.org/2000/svg">
<g clip-path="url(#clip0_1_252)">
<path d="M6.90039 13.7376C2.9274 7.9779 2.18994 7.38678 2.18994 5.27002C2.18994 2.37052 4.54044 0.0200195 7.43994 0.0200195C10.3394 0.0200195 12.6899 2.37052 12.6899 5.27002C12.6899 7.38678 11.9525 7.9779 7.97949 13.7376C7.71877 14.1142 7.16109 14.1142 6.90039 13.7376ZM7.43994 7.45752C8.64807 7.45752 9.62744 6.47815 9.62744 5.27002C9.62744 4.06189 8.64807 3.08252 7.43994 3.08252C6.23181 3.08252 5.25244 4.06189 5.25244 5.27002C5.25244 6.47815 6.23181 7.45752 7.43994 7.45752Z" fill="#6BDDE4"/>
</g>
<defs>
<clipPath id="clip0_1_252">
<rect width="14" height="14" fill="white" transform="translate(0.439941 0.0200195)"/>
</clipPath>
</defs>
</svg>
