<svg width="15" height="12" viewBox="0 0 15 12" fill="none" xmlns="http://www.w3.org/2000/svg">
<path d="M14.1747 4.23721C14.2813 4.15244 14.4399 4.23174 14.4399 4.36572V9.95752C14.4399 10.6821 13.8521 11.27 13.1274 11.27H1.75244C1.02783 11.27 0.439941 10.6821 0.439941 9.95752V4.36846C0.439941 4.23174 0.595801 4.15518 0.705176 4.23994C1.31768 4.71572 2.12979 5.32002 4.91885 7.34619C5.4958 7.76729 6.46924 8.65322 7.43994 8.64775C8.41611 8.65596 9.40869 7.75088 9.96377 7.34619C12.7528 5.32002 13.5622 4.71299 14.1747 4.23721ZM7.43994 7.77002C8.07432 7.78096 8.9876 6.97158 9.44697 6.63799C13.0755 4.00479 13.3517 3.7751 14.1884 3.11885C14.347 2.9958 14.4399 2.80439 14.4399 2.60205V2.08252C14.4399 1.35791 13.8521 0.77002 13.1274 0.77002H1.75244C1.02783 0.77002 0.439941 1.35791 0.439941 2.08252V2.60205C0.439941 2.80439 0.53291 2.99307 0.691504 3.11885C1.52822 3.77236 1.80439 4.00479 5.43291 6.63799C5.89229 6.97158 6.80557 7.78096 7.43994 7.77002Z" fill="#6BDDE4"/>
</svg>
