<svg width="15" height="15" viewBox="0 0 15 15" fill="none" xmlns="http://www.w3.org/2000/svg">
<path d="M14.0404 9.91323L10.9779 8.60073C10.8471 8.54497 10.7017 8.53323 10.5636 8.56725C10.4256 8.60128 10.3023 8.67924 10.2123 8.7894L8.85607 10.4464C6.72757 9.44286 5.01461 7.7299 4.01104 5.60139L5.66807 4.24514C5.77845 4.15537 5.85657 4.03207 5.89062 3.89393C5.92466 3.75578 5.91277 3.6103 5.85674 3.47952L4.54424 0.417018C4.48275 0.276036 4.37399 0.160929 4.23672 0.0915447C4.09945 0.0221608 3.94227 0.00284909 3.79229 0.0369396L0.948535 0.69319C0.803933 0.726581 0.674919 0.808 0.582549 0.924158C0.490179 1.04032 0.439908 1.18435 0.439941 1.33276C0.439941 8.34643 6.12471 14.0203 13.1274 14.0203C13.2759 14.0204 13.42 13.9701 13.5362 13.8777C13.6524 13.7854 13.7339 13.6563 13.7673 13.5117L14.4235 10.6679C14.4574 10.5172 14.4377 10.3594 14.3678 10.2217C14.2978 10.0839 14.1821 9.97484 14.0404 9.91323Z" fill="#6BDDE4"/>
</svg>
