<svg width="30" height="31" viewBox="0 0 30 31" fill="none" xmlns="http://www.w3.org/2000/svg">
<g clip-path="url(#clip0_1_19)">
<path d="M28.3144 7.18888L28.2861 6.28237L27.3796 6.19738C26.5109 6.10295 25.6799 5.96131 24.8867 5.77245C24.0746 5.58359 23.3144 5.36168 22.6062 5.10673C21.898 4.85177 21.2417 4.59209 20.6374 4.32769C20.033 4.0444 19.4948 3.77056 19.0227 3.50616C17.9839 2.95848 17.1671 2.46272 16.5722 2.01891C15.9773 1.57509 15.6799 1.34374 15.6799 1.32486L15 0.758286L14.3201 1.32486C14.3201 1.34374 14.0227 1.57509 13.4278 2.01891C12.8329 2.46272 12.0161 2.95848 10.9773 3.50616C10.5052 3.77056 9.96695 4.0444 9.3626 4.32769C8.75826 4.59209 8.10198 4.85177 7.39377 5.10673C6.68555 5.36168 5.9254 5.58359 5.11331 5.77245C4.32011 5.96131 3.48914 6.10295 2.62039 6.19738L1.71388 6.28237L1.68555 7.18888V7.98208C1.68555 8.45423 1.7186 9.08218 1.7847 9.86593C1.8508 10.6497 1.97828 11.5609 2.16714 12.5996C2.35599 13.6384 2.63928 14.7432 3.017 15.9141C3.45137 17.3116 3.98489 18.6289 4.61756 19.8659C5.25023 21.103 5.97261 22.2503 6.7847 23.3079C7.3135 23.9689 7.86119 24.6015 8.42776 25.2059C9.01322 25.7913 9.63173 26.3437 10.2833 26.8631C10.9348 27.3825 11.61 27.8688 12.3088 28.322C13.0264 28.7753 13.7724 29.1813 14.5467 29.5402L15 29.7668L15.4533 29.5402C16.2276 29.1813 16.9736 28.7753 17.6912 28.322C18.39 27.8688 19.0652 27.3825 19.7167 26.8631C20.3683 26.3437 20.9868 25.7913 21.5722 25.2059C22.1388 24.6015 22.6865 23.9689 23.2153 23.3079C24.0274 22.2503 24.7498 21.103 25.3824 19.8659C26.0151 18.6289 26.5486 17.3116 26.983 15.9141C27.3607 14.7432 27.644 13.6384 27.8329 12.5996C28.0217 11.5609 28.1492 10.6497 28.2153 9.86593C28.2814 9.08218 28.3144 8.45423 28.3144 7.98208V7.18888ZM15 27.4155C13.7158 26.7734 12.526 25.9991 11.4306 25.0926C10.3352 24.186 9.35316 23.1757 8.48442 22.0614C7.74787 21.0982 7.09159 20.0548 6.51558 18.9311C5.93956 17.8074 5.45326 16.6129 5.05666 15.3475C4.54674 13.8178 4.21152 12.4061 4.05099 11.1124C3.89046 9.81872 3.80075 8.84138 3.78187 8.18038C4.48064 8.06707 5.17941 7.92542 5.87819 7.75545C6.57696 7.58548 7.27573 7.37774 7.9745 7.13222C8.67327 6.88671 9.35788 6.61759 10.0283 6.32486C10.6988 6.03213 11.3645 5.70635 12.0255 5.34752C12.7054 4.96981 13.2956 4.62042 13.796 4.29936C14.2965 3.9783 14.6978 3.70446 15 3.47783C15.3022 3.70446 15.7035 3.9783 16.204 4.29936C16.7044 4.62042 17.2946 4.96981 17.9745 5.34752C18.6355 5.70635 19.3012 6.03213 19.9717 6.32486C20.6421 6.61759 21.3267 6.88671 22.0255 7.13222C22.7243 7.37774 23.423 7.58548 24.1218 7.75545C24.8206 7.92542 25.5194 8.06707 26.2181 8.18038C26.1992 8.84138 26.1095 9.80928 25.949 11.0841C25.7885 12.3589 25.4627 13.7611 24.9717 15.2909C24.5751 16.5562 24.0888 17.7507 23.5127 18.8744C22.9367 19.9981 22.2805 21.051 21.5439 22.0331C20.6752 23.1662 19.6931 24.186 18.5977 25.0926C17.5024 25.9991 16.3031 26.7734 15 27.4155ZM20.7224 10.475L13.8102 17.4155L10.6374 14.271L9.1643 15.7441L13.8102 20.39L22.2238 11.9764L20.7224 10.475Z" fill="white"/>
</g>
<defs>
<clipPath id="clip0_1_19">
<rect width="30" height="30" fill="white" transform="matrix(1 0 0 -1 0 30.22)"/>
</clipPath>
</defs>
</svg>
