<svg width="30" height="31" viewBox="0 0 30 31" fill="none" xmlns="http://www.w3.org/2000/svg">
<path d="M29.3626 15.4892L28.881 14.9226C28.8432 14.8471 28.7866 14.7951 28.711 14.7668C28.6355 14.7385 28.5694 14.7149 28.5127 14.696C28.4372 14.696 28.3617 14.7101 28.2861 14.7385C28.2106 14.7668 28.1445 14.7998 28.0878 14.8376L26.5297 16.1691C26.6053 14.9037 26.5061 13.6525 26.2323 12.4155C25.9584 11.1785 25.5099 10.0029 24.8867 8.8886C24.3201 7.86877 23.6308 6.94337 22.8187 6.1124C21.9877 5.30031 21.0812 4.60626 20.0991 4.03024C19.1171 3.45423 18.0689 3.00569 16.9547 2.68464C15.8404 2.38246 14.6884 2.23138 13.4986 2.23138C12.4032 2.23138 11.3173 2.37302 10.2408 2.65631C9.1643 2.93959 8.13503 3.35508 7.15297 3.90277C6.39754 4.31825 5.69877 4.79984 5.05665 5.34752C4.41454 5.9141 3.82908 6.52788 3.30028 7.18888C2.77148 7.84989 2.31822 8.5581 1.9405 9.31353C1.5439 10.0878 1.23229 10.8905 1.00566 11.7215C0.760144 12.5524 0.599615 13.3929 0.524072 14.2427C0.467415 15.1115 0.486301 15.9613 0.58073 16.7923C0.675158 17.6233 0.854573 18.4448 1.11897 19.2569C1.38337 20.069 1.73276 20.8527 2.16713 21.6081C2.7337 22.6469 3.42303 23.5723 4.23512 24.3844C5.04721 25.2153 5.94428 25.9188 6.92634 26.4948C7.9084 27.0708 8.95656 27.5099 10.0708 27.8121C11.1851 28.1332 12.3371 28.2937 13.5269 28.2937C13.7535 28.2937 13.9896 28.2843 14.2351 28.2654L14.9717 28.2087C15.1228 28.1898 15.2455 28.119 15.3399 27.9963C15.4344 27.8735 15.4721 27.7366 15.4533 27.5855L15.3683 26.8206C15.3494 26.6695 15.2833 26.5468 15.17 26.4523C15.0567 26.3579 14.915 26.3201 14.745 26.339C14.5373 26.3579 14.3343 26.3721 14.136 26.3815C13.9377 26.391 13.7346 26.3957 13.5269 26.3957C12.5071 26.3957 11.525 26.2635 10.5807 25.9991C9.63644 25.7347 8.74409 25.357 7.90368 24.8659C7.06326 24.3749 6.29367 23.78 5.59489 23.0812C4.89612 22.3636 4.30122 21.5704 3.81019 20.7016C3.05476 19.3607 2.6015 17.9538 2.45042 16.4807C2.29933 15.0265 2.41737 13.61 2.80453 12.2314C3.19168 10.8527 3.83852 9.58737 4.74504 8.43534C5.63267 7.26443 6.74692 6.30125 8.08781 5.54583C8.91879 5.07368 9.79225 4.71957 10.7082 4.4835C11.6242 4.24743 12.5543 4.12939 13.4986 4.12939C14.5184 4.12939 15.5005 4.26159 16.4448 4.526C17.4079 4.7904 18.3097 5.16811 19.1501 5.65914C19.9906 6.15017 20.7601 6.74507 21.4589 7.44384C22.1577 8.14261 22.7526 8.93582 23.2436 9.82345C23.7724 10.7866 24.1549 11.797 24.3909 12.8546C24.627 13.9122 24.7073 14.9793 24.6317 16.0557L23.2436 14.4127C23.1492 14.2994 23.0217 14.2333 22.8612 14.2144C22.7007 14.1955 22.5637 14.2427 22.4504 14.356L21.8555 14.8376C21.7989 14.8943 21.7564 14.9556 21.728 15.0217C21.6997 15.0878 21.6761 15.1587 21.6572 15.2342C21.6572 15.3098 21.6667 15.3806 21.6855 15.4467C21.7044 15.5128 21.7422 15.5742 21.7989 15.6308L24.8584 19.2852C24.915 19.3419 24.9811 19.3891 25.0567 19.4268C25.1322 19.4646 25.2077 19.4835 25.2833 19.4835C25.3588 19.4835 25.4249 19.4741 25.4816 19.4552C25.5382 19.4363 25.5949 19.3985 25.6516 19.3419L29.3059 16.2824C29.3626 16.2446 29.4098 16.1927 29.4476 16.1266C29.4854 16.0605 29.5042 15.9896 29.5042 15.9141C29.5042 15.8386 29.4948 15.763 29.4759 15.6875C29.457 15.6119 29.4193 15.5458 29.3626 15.4892ZM20.3258 25.9991H18.5411L19.5892 24.6676C20.288 23.8556 20.6704 23.1709 20.7365 22.6138C20.8026 22.0567 20.7696 21.6176 20.6374 21.2965C20.4863 20.9566 20.2408 20.6875 19.9008 20.4892C19.5609 20.2909 19.1832 20.1823 18.7677 20.1634C18.2956 20.1634 17.8517 20.2861 17.4363 20.5317C17.0208 20.7772 16.7092 21.1077 16.5014 21.5232C16.4825 21.5609 16.4731 21.6034 16.4731 21.6506C16.4731 21.6979 16.4825 21.7403 16.5014 21.7781C16.5014 21.8159 16.5203 21.8537 16.5581 21.8914C16.5958 21.9292 16.6336 21.9575 16.6714 21.9764L17.2663 22.288C17.3607 22.3258 17.4504 22.3305 17.5354 22.3022C17.6204 22.2739 17.6818 22.2125 17.7195 22.1181C17.8329 21.9103 17.9887 21.7592 18.187 21.6648C18.3853 21.5704 18.5694 21.5232 18.7394 21.5232C18.9093 21.5232 19.051 21.5562 19.1643 21.6223C19.2776 21.6884 19.3532 21.7687 19.3909 21.8631C19.4665 22.0142 19.4476 22.255 19.3343 22.5855C19.221 22.916 18.966 23.3268 18.5694 23.8178H18.5411L16.1331 26.8206C16.0954 26.8584 16.0765 26.9103 16.0765 26.9764C16.0765 27.0425 16.0859 27.1039 16.1048 27.1606C16.1426 27.2172 16.1851 27.2644 16.2323 27.3022C16.2795 27.34 16.3409 27.3589 16.4164 27.3589H20.3258C20.4202 27.3589 20.5005 27.3258 20.5666 27.2597C20.6327 27.1936 20.6657 27.1133 20.6657 27.0189V26.339C20.6657 26.2446 20.6327 26.1643 20.5666 26.0982C20.5005 26.0321 20.4202 25.9991 20.3258 25.9991ZM26.0482 24.5827H25.7365V20.7016C25.7365 20.6261 25.7035 20.5505 25.6374 20.475C25.5713 20.3995 25.491 20.3617 25.3966 20.3617H24.7167C24.66 20.3617 24.6081 20.3759 24.5609 20.4042C24.5137 20.4325 24.4712 20.475 24.4334 20.5317L20.9773 25.4042C20.9396 25.4608 20.9207 25.5222 20.9207 25.5883C20.9207 25.6544 20.9301 25.7158 20.949 25.7725C20.9868 25.8291 21.034 25.8716 21.0906 25.8999C21.1473 25.9283 21.204 25.9424 21.2606 25.9424H24.3768V26.9623C24.3768 27.0567 24.4098 27.1369 24.4759 27.203C24.542 27.2691 24.6223 27.3022 24.7167 27.3022H25.3966C25.491 27.3022 25.5713 27.2691 25.6374 27.203C25.7035 27.1369 25.7365 27.0567 25.7365 26.9623V25.9424H26.0482C26.1426 25.9424 26.2228 25.9094 26.2889 25.8433C26.355 25.7772 26.3881 25.6969 26.3881 25.6025V24.9226C26.3881 24.8282 26.355 24.7479 26.2889 24.6818C26.2228 24.6157 26.1426 24.5827 26.0482 24.5827ZM24.3768 24.5827H23.2153L24.3768 22.9679V24.5827ZM20.2974 9.03024L19.7592 8.492C19.7214 8.45423 19.6837 8.4259 19.6459 8.40701C19.6081 8.38813 19.5609 8.37869 19.5042 8.37869C19.4476 8.37869 19.3956 8.38813 19.3484 8.40701C19.3012 8.4259 19.2587 8.45423 19.221 8.492L13.5269 14.1861L9.98583 10.645C9.94806 10.6072 9.90556 10.5789 9.85835 10.56C9.81114 10.5411 9.7592 10.5317 9.70254 10.5317C9.66477 10.5317 9.62228 10.5411 9.57506 10.56C9.52785 10.5789 9.48536 10.6072 9.44759 10.645L8.90934 11.1832C8.8338 11.2588 8.79603 11.3485 8.79603 11.4523C8.79603 11.5562 8.8338 11.6459 8.90934 11.7215L13.2436 16.0557C13.2814 16.0935 13.3239 16.1218 13.3711 16.1407C13.4183 16.1596 13.4702 16.1691 13.5269 16.1691C13.5836 16.1691 13.6308 16.1596 13.6685 16.1407C13.7063 16.1218 13.7441 16.0935 13.7819 16.0557L20.2974 9.54016C20.373 9.46462 20.4108 9.37491 20.4108 9.27104C20.4108 9.16717 20.373 9.0869 20.2974 9.03024Z" fill="white"/>
</svg>
